<?xml version="1.0" encoding="utf-8"?>
<!-- Generator: Adobe Illustrator 23.0.3, SVG Export Plug-In . SVG Version: 6.00 Build 0)  -->
<svg version="1.1" id="Capa_1" xmlns="http://www.w3.org/2000/svg" xmlns:xlink="http://www.w3.org/1999/xlink" x="0px" y="0px"
	 viewBox="0 0 512 512" style="enable-background:new 0 0 512 512;" xml:space="preserve">
<style type="text/css">
	.st0{fill:#95A5A5;}
	.st1{fill:#5E5F62;}
	.st2{fill:#BDC3C7;}
	.st3{fill:#67B9CC;}
	.st4{fill:#F29C1F;}
	.st5{fill:#E6E7E8;}
	.st6{fill:#24AE5F;}
	.st7{fill:#4482C3;}
</style>
<g transform="translate(-1)">
	<polygon class="st0" points="311.4,425.2 257,425.2 202.6,425.2 178.9,503.3 257,503.3 335.1,503.3 	"/>
	<path class="st1" d="M508.7,53.7v328.1H5.3V53.7c-0.4-10,7.3-18.5,17.4-19h468.6C501.3,35.2,509.1,43.7,508.7,53.7z"/>
	<g>
		<path class="st2" d="M508.7,364.5v50.4c0.4,10-7.3,18.5-17.4,19H22.7c-10-0.5-17.7-9-17.4-19v-50.4H508.7z"/>
		<path class="st2" d="M352.5,512H161.5c-4.8,0-8.7-3.9-8.7-8.7s3.9-8.7,8.7-8.7h190.9c4.8,0,8.7,3.9,8.7,8.7
			C361.1,508.1,357.2,512,352.5,512z"/>
	</g>
	<path class="st3" d="M57.4,243H40.1c-4.8,0-8.7-3.9-8.7-8.7s3.9-8.7,8.7-8.7h17.4c4.8,0,8.7,3.9,8.7,8.7S62.2,243,57.4,243z"/>
	<path class="st4" d="M126.8,277.7h-17.4c-4.8,0-8.7-3.9-8.7-8.7s3.9-8.7,8.7-8.7h17.4c4.8,0,8.7,3.9,8.7,8.7
		C135.5,273.8,131.6,277.7,126.8,277.7z"/>
	<path class="st3" d="M83.4,277.7H40.1c-4.8,0-8.7-3.9-8.7-8.7s3.9-8.7,8.7-8.7h43.4c4.8,0,8.7,3.9,8.7,8.7S88.2,277.7,83.4,277.7z"
		/>
	<g>
		<path class="st4" d="M126.8,243H92.1c-4.8,0-8.7-3.9-8.7-8.7s3.9-8.7,8.7-8.7h34.7c4.8,0,8.7,3.9,8.7,8.7S131.6,243,126.8,243z"/>
		<path class="st4" d="M176,312.4h-66.6c-4.8,0-8.7-3.9-8.7-8.7s3.9-8.7,8.7-8.7H176c4.8,0,8.7,3.9,8.7,8.7
			C184.7,308.5,180.8,312.4,176,312.4z"/>
	</g>
	<path class="st3" d="M74.8,312.4H40.1c-4.8,0-8.7-3.9-8.7-8.7s3.9-8.7,8.7-8.7h34.7c4.8,0,8.7,3.9,8.7,8.7S79.6,312.4,74.8,312.4z"
		/>
	<path class="st5" d="M473.9,243h-17.4c-4.8,0-8.7-3.9-8.7-8.7s3.9-8.7,8.7-8.7h17.4c4.8,0,8.7,3.9,8.7,8.7S478.7,243,473.9,243z"/>
	<path class="st6" d="M404.5,277.7h-17.4c-4.8,0-8.7-3.9-8.7-8.7s3.9-8.7,8.7-8.7h17.4c4.8,0,8.7,3.9,8.7,8.7
		S409.3,277.7,404.5,277.7z"/>
	<path class="st5" d="M473.9,277.7h-43.4c-4.8,0-8.7-3.9-8.7-8.7s3.9-8.7,8.7-8.7h43.4c4.8,0,8.7,3.9,8.7,8.7
		C482.6,273.8,478.7,277.7,473.9,277.7z"/>
	<g>
		<path class="st6" d="M421.9,243h-34.7c-4.8,0-8.7-3.9-8.7-8.7s3.9-8.7,8.7-8.7h34.7c4.8,0,8.7,3.9,8.7,8.7S426.7,243,421.9,243z"
			/>
		<path class="st6" d="M404.5,312.4H338c-4.8,0-8.7-3.9-8.7-8.7s3.9-8.7,8.7-8.7h66.6c4.8,0,8.7,3.9,8.7,8.7
			S409.3,312.4,404.5,312.4z"/>
	</g>
	<path class="st5" d="M473.9,312.4h-34.7c-4.8,0-8.7-3.9-8.7-8.7s3.9-8.7,8.7-8.7h34.7c4.8,0,8.7,3.9,8.7,8.7
		S478.7,312.4,473.9,312.4z"/>
	<path class="st7" d="M263.8,335.5l105.5-45.2c5.7-2.4,9.6-7.7,10.4-13.9l31.2-257c0.6-4.9-0.9-9.9-4.2-13.6s-8-5.8-13-5.8H120.4
		c-5,0-9.7,2.1-13,5.8s-4.8,8.7-4.2,13.6l31.2,257c0.7,6.1,4.7,11.4,10.4,13.9l105.5,45.2C254.5,337.4,259.5,337.4,263.8,335.5z"/>
	<path class="st3" d="M167,257.4L141.1,44.4c-0.3-2.5,0.5-4.9,2.1-6.8c1.6-1.9,4-2.9,6.5-2.9h214.5c2.5,0,4.8,1.1,6.5,2.9
		s2.4,4.3,2.1,6.8L347,257.4c-0.4,3.1-2.4,5.7-5.2,6.9l-81.4,34.9c-2.2,0.9-4.7,0.9-6.8,0l-81.4-34.9
		C169.3,263.1,167.3,260.5,167,257.4z"/>
	<path class="st5" d="M343.2,67.2c-1-3.8-4.5-6.4-8.4-6.4H179.1c-4.8,0-8.7,3.9-8.7,8.7s3.9,8.7,8.7,8.7h123.5L185,146.4
		c-3.4,2-5,6-4,9.8s4.5,6.4,8.4,6.4h125.4l-8.5,69.8L257,253.5l-49.4-21.1l-4.5-37.3c-0.6-4.8-4.9-8.2-9.7-7.6
		c-4.8,0.6-8.2,4.9-7.6,9.7l5.1,42.2c0.4,3.1,2.4,5.7,5.2,6.9l57.4,24.6c2.2,0.9,4.7,0.9,6.8,0l57.4-24.6c2.8-1.2,4.8-3.9,5.2-6.9
		l10.2-84.4c0.3-2.5-0.5-4.9-2.1-6.8s-4-2.9-6.5-2.9h-103l117.6-68.3C342.6,75,344.3,71,343.2,67.2z"/>
</g>
</svg>
