<svg version="1.1" id="Capa_1" xmlns="http://www.w3.org/2000/svg" x="0px" y="0px"
     viewBox="0 0 52 52" style="enable-background:new 0 0 52 52;" xml:space="preserve">
    <g>
	<path class="st0" d="M40.8,1C46.4,1,51,5.6,51,11.2v29.6C51,46.4,46.4,51,40.8,51H11.2C5.6,51,1,46.4,1,40.8V11.2
		C1,5.6,5.6,1,11.2,1H40.8 M40.8,0H11.2C5,0,0,5,0,11.2v29.6C0,47,5,52,11.2,52h29.6C47,52,52,47,52,40.8V11.2C52,5,47,0,40.8,0
		L40.8,0z"/>
</g>
    <g>
	<g>
		<path class="st0" d="M30.7,39h-3.2l-2.8-9h-8.3l-2.6,9h-3.1l8.2-28h3.3L30.7,39z M24,27l-3.5-11.4L17.1,27H24z"/>
	</g>
        <g>
		<path class="st0" d="M37.5,12.2c0,0.5-0.2,0.8-0.5,1.2c-0.3,0.3-0.7,0.5-1.1,0.5s-0.8-0.2-1.2-0.5c-0.3-0.3-0.5-0.7-0.5-1.1
			s0.2-0.8,0.5-1.1c0.3-0.3,0.7-0.5,1.2-0.5s0.8,0.2,1.1,0.5C37.3,11.4,37.5,11.8,37.5,12.2z M37.2,39h-2.9V19h2.9V39z"/>
	</g>
</g>
</svg>