<?xml version="1.0" encoding="utf-8"?>
<!-- Generator: Adobe Illustrator 23.0.3, SVG Export Plug-In . SVG Version: 6.00 Build 0)  -->
<svg version="1.1" id="Capa_1" xmlns="http://www.w3.org/2000/svg" xmlns:xlink="http://www.w3.org/1999/xlink" x="0px" y="0px"
	 viewBox="0 0 52 52" style="enable-background:new 0 0 52 52;" xml:space="preserve">
<style type="text/css">
	.st0{fill:#FFFFFF;}
</style>
<g>
	<path class="st0" d="M40.8,1C46.4,1,51,5.6,51,11.2v29.6C51,46.4,46.4,51,40.8,51H11.2C5.6,51,1,46.4,1,40.8V11.2
		C1,5.6,5.6,1,11.2,1H40.8 M40.8,0H11.2C5,0,0,5,0,11.2v29.6C0,47,5,52,11.2,52h29.6C47,52,52,47,52,40.8V11.2C52,5,47,0,40.8,0
		L40.8,0z"/>
</g>
<g>
	<path class="st0" d="M18.1,39h-2.9V13.7l-2.6-0.1V11h5.5V39z"/>
	<path class="st0" d="M27.7,19.4c1.2-0.5,2.6-0.8,4.3-0.8c1.7,0,3.1,0.4,4.2,1.1V11H39v28c-2.3,0.3-4.4,0.5-6.4,0.5
		c-1.9,0-3.7-0.4-5.3-1.2c-2.1-1.1-3.1-2.9-3.1-5.6v-7.6C24.3,22.4,25.4,20.4,27.7,19.4z M36.2,22.5c-1.4-0.7-2.9-1.1-4.6-1.1
		c-1.6,0-2.7,0.4-3.4,1.2c-0.7,0.8-1.1,1.8-1.1,3.1v7.1c0,1.2,0.4,2.2,1.3,2.9c1,0.7,2.1,1.1,3.6,1.1c1.4,0,2.8-0.1,4.2-0.3V22.5z"
		/>
</g>
</svg>
