<?xml version="1.0" encoding="utf-8"?>
<!-- Generator: Adobe Illustrator 23.0.3, SVG Export Plug-In . SVG Version: 6.00 Build 0)  -->
<svg version="1.1" id="Capa_1" xmlns="http://www.w3.org/2000/svg" xmlns:xlink="http://www.w3.org/1999/xlink" x="0px" y="0px"
	 viewBox="0 0 52 52" style="enable-background:new 0 0 52 52;" xml:space="preserve">
<style type="text/css">
	.st0{fill:#FFFFFF;}
</style>
<g>
	<path class="st0" d="M40.8,1C46.4,1,51,5.6,51,11.2v29.6C51,46.4,46.4,51,40.8,51H11.2C5.6,51,1,46.4,1,40.8V11.2
		C1,5.6,5.6,1,11.2,1H40.8 M40.8,0H11.2C5,0,0,5,0,11.2v29.6C0,47,5,52,11.2,52h29.6C47,52,52,47,52,40.8V11.2C52,5,47,0,40.8,0
		L40.8,0z"/>
</g>
<g>
	<path class="st0" d="M12.2,39H9.3V11h9.6c2.6,0,4.6,0.8,5.8,2.4c1.3,1.6,1.9,3.8,1.9,6.4c0,0.9,0,1.7-0.1,2.4
		c-0.1,0.7-0.2,1.5-0.5,2.6c-0.3,1-0.7,1.9-1.1,2.5c-0.5,0.7-1.2,1.2-2.2,1.7c-1,0.5-2.2,0.7-3.5,0.7h-7C12.2,29.8,12.2,39,12.2,39z
		 M12.2,27h6.7c1,0,1.8-0.2,2.4-0.6c0.7-0.4,1.2-0.8,1.5-1.2c0.3-0.4,0.5-1,0.7-1.8c0.2-0.8,0.3-1.4,0.3-1.8c0-0.4,0-1,0-1.7
		c0-4.1-1.7-6.1-5.1-6.1h-6.5C12.2,13.8,12.2,27,12.2,27z"/>
	<path class="st0" d="M29.5,33.9l2.8-0.1c0.1,1,0.6,1.8,1.5,2.3c0.9,0.5,1.9,0.8,3,0.8s2.1-0.3,3-0.8s1.3-1.3,1.3-2.2
		s-0.4-1.7-1.1-2.3c-0.7-0.6-1.6-1-2.6-1.4c-1-0.3-2.1-0.7-3.1-1.1c-1.1-0.4-2-1-2.8-1.8c-1-0.9-1.5-2.1-1.5-3.4s0.5-2.6,1.6-3.8
		c1.1-1.2,2.8-1.7,5.3-1.7c0.9,0,1.7,0.1,2.4,0.3c0.7,0.2,1.3,0.4,1.6,0.6l0.5,0.3l-0.9,2.5c-0.9-0.7-2-1-3.4-1
		c-1.4,0-2.4,0.3-3.1,0.8c-0.7,0.5-1,1.2-1,2c0,0.9,0.4,1.6,1.3,2.1c0.9,0.5,1.8,0.9,2.9,1.3c1.1,0.3,2.1,0.7,3.2,1.2
		c1.1,0.4,1.9,1.1,2.7,2S44,32.5,44,34s-0.6,2.8-1.8,3.9c-1.2,1.1-3,1.7-5.3,1.7c-2.3,0-4.1-0.5-5.4-1.6
		C30.2,36.9,29.5,35.5,29.5,33.9z"/>
</g>
</svg>
