<?xml version="1.0" encoding="UTF-8"?>
<svg fill="#9C9C9C" width="100pt" height="100pt" version="1.1" viewBox="0 0 100 100" xmlns="http://www.w3.org/2000/svg">
 <g>
  <path d="m99.988 21.098c0.035157 0.46875-0.011719 1.1055-0.035156 1.5859 0 0.88281-1.5273 1.0352-1.5273-0.09375 0.035157-0.49219 0.046875-0.97656 0.046875-1.457 0-0.98828 1.5156-1.0117 1.5156-0.035156z"/>
  <path d="m99.34 16.418c0.1875 1.1055-1.3047 1.2227-1.4688 0.375-0.12891-0.46875-0.26953-0.94141-0.43359-1.3984-0.35156-0.87109 1.0352-1.5156 1.4336-0.51562 0.17578 0.51953 0.32812 1.0234 0.46875 1.5391z"/>
  <path d="m98.566 26.398c0.31641 0.12891 0.57422 0.5625 0.42188 0.95312-0.1875 0.51953-0.38672 0.97656-0.59766 1.4805-0.33984 0.84766-1.7969 0.38672-1.3867-0.63672 0.1875-0.46094 0.375-0.88281 0.53906-1.3398 0.16406-0.39844 0.5625-0.64453 1.0234-0.45703z"/>
  <path d="m96.754 10.637c0.30469 0.49219 0.046875 1.0586-0.51562 1.1758-0.28125 0.058594-0.625-0.10547-0.75391-0.32812-0.26953-0.41016-0.55078-0.80078-0.85547-1.1875-0.61328-0.8125 0.60938-1.7266 1.1992-0.94141 0.32812 0.41016 0.63281 0.83594 0.92578 1.2812z"/>
  <path d="m95.746 31.781c0.29297 0.23438 0.33984 0.78906 0.070312 1.0586-0.35156 0.40234-0.70312 0.78906-1.0938 1.1641-0.69141 0.69531-1.7891-0.36328-1.0586-1.0938 0.33984-0.33984 0.68359-0.69531 0.98828-1.0586 0.33984-0.33984 0.71484-0.35156 1.0938-0.070312z"/>
  <path d="m94.5 56.383c0.46094 0.47266 0.74219 1.1055 0.74219 1.8086 0 0.71875-0.29297 1.375-0.76172 1.8477l-0.023438 0.023438c-0.46875 0.46094-1.1172 0.74219-1.8203 0.74219-0.71875 0-1.3633-0.29297-1.832-0.76172l-0.023438-0.023438c-0.45703-0.46875-0.75-1.1172-0.75-1.8203 0-0.71875 0.29297-1.3633 0.76172-1.832l0.035156-0.023438c0.46875-0.46875 1.1055-0.74219 1.8086-0.74219 0.71875 0 1.375 0.28125 1.8477 0.75zm-0.77734 1.8086c0-0.29297-0.12891-0.5625-0.31641-0.76562-0.19922-0.19922-0.47266-0.31641-0.77734-0.31641-0.29297 0-0.5625 0.11719-0.76172 0.31641-0.19922 0.19922-0.31641 0.46875-0.31641 0.76562 0 0.30469 0.11719 0.57422 0.31641 0.77734 0.19922 0.1875 0.46875 0.30469 0.76172 0.30469 0.30469 0 0.57812-0.11719 0.76562-0.30469 0.19922-0.19922 0.32812-0.47266 0.32812-0.77734z"/>
  <path d="m92.406 6.0312c0.80859 0.59766-0.10547 1.8203-0.89453 1.2227-0.39844-0.28125-0.78906-0.55078-1.2109-0.8125-0.85938-0.50391-0.070312-1.8203 0.78906-1.3047 0.45703 0.28125 0.89453 0.57422 1.3164 0.89453z"/>
  <path d="m90.16 35.543c0.85547-0.50781 1.6445 0.78906 0.77734 1.3164l-0.43359 0.24609c-0.80078 0.48047-1.6562-0.78906-0.74219-1.3398z"/>
  <path d="m86.719 3.2422c0.85938 0.17578 0.71875 1.6914-0.39844 1.4688-0.48047-0.11719-0.94141-0.22266-1.4219-0.31641-0.97656-0.19922-0.71484-1.6914 0.26953-1.5039 0.52734 0.09375 1.0312 0.22266 1.5508 0.35156z"/>
  <path d="m85.262 23.836v60.391c0 0.42188-0.33984 0.76172-0.76562 0.76172h-77.082c-0.42187 0-0.76172-0.33984-0.76172-0.76172v-60.391c0-0.41016 0.33984-0.76563 0.76172-0.76563h77.082c0.42188 0.003907 0.76562 0.35547 0.76562 0.76563zm-1.5312 59.637v-58.871h-75.551v58.875z"/>
  <path d="m83.637 17.82c0.36328 0.19922 0.49219 0.66797 0.28125 1.0352-0.070313 0.11719-0.16406 0.21094-0.28125 0.26953l-2.7734 1.6094c-0.36328 0.21094-0.83594 0.082031-1.0469-0.28125-0.19922-0.35156-0.082031-0.82031 0.28125-1.0352l1.6445-0.94141-1.6445-0.95312c-0.36328-0.21094-0.48047-0.67188-0.28125-1.0352 0.21094-0.36328 0.67969-0.49609 1.0469-0.28125z"/>
  <path d="m80.441 2.6445c1.1055 0 0.96484 1.5273 0.09375 1.5273-0.48047 0.023437-0.97656 0.082031-1.457 0.15234-0.90625 0.1875-1.3047-1.293-0.23438-1.5039 0.52734-0.082031 1.0586-0.14062 1.5977-0.17578z"/>
  <path d="m79.336 62.035v16.277c0 0.42188-0.33984 0.76562-0.76563 0.76562h-65.234c-0.42188 0-0.76563-0.33984-0.76563-0.76562v-22.602l0.003907-26.176c0-0.41016 0.33984-0.76562 0.76562-0.76562h65.234c0.42188 0 0.76562 0.35547 0.76562 0.76562zm-1.5156 15.516v-15.16l-7.3711-6.7812c-0.43359 0.35156-1.2227 1.0586-2.2109 1.9492-0.90625 0.82422-1.9609 1.7734-3.0781 2.7266v0.011719l-0.19922 0.1875-0.19922 0.19922-0.023438 0.011718-0.1875 0.17578-0.023437 0.023437-0.1875 0.17578-0.011719 0.023438-0.1875 0.17578-0.035156 0.023438-0.17578 0.17578-0.035157 0.023438-0.21484 0.21484-0.17578 0.16406-0.19922 0.19922-0.046876 0.035157-0.21094 0.21094-0.16406 0.15234-0.046874 0.046875-0.16406 0.15234-0.046875 0.046875-0.15234 0.14062-0.058594 0.058593-0.15234 0.14063-0.058594 0.070312-0.15234 0.12891-0.058593 0.070313-0.14063 0.12891-0.19922 0.19922-0.082032 0.070312-0.12891 0.11719-0.28125 0.28125-0.11719 0.10547-0.09375 0.082032-0.30469 0.30469-0.09375 0.082031-0.19922 0.19922-0.09375 0.082031-0.10547 0.10547-0.09375 0.082031-0.10547 0.09375-0.082031 0.09375-0.10547 0.09375-0.1875 0.1875-0.082031 0.070313-0.11719 0.10547-0.24609 0.24609-0.11719 0.10547-0.35156 0.35156-0.058593 0.046875-0.11719 0.10547-0.21094 0.21094-0.12891 0.11719-0.035157 0.035156-0.12891 0.11719-0.30469 0.30469-0.035157 0.023437-0.11719 0.11719-0.035156 0.023437-0.25781 0.25781-0.023437 0.011718-0.11719 0.11719-0.011719 0.023438-0.11719 0.10547-0.12891 0.12891h-0.011719l-0.11719 0.11719-0.11719 0.10547v0.011719l-0.11719 0.10547-0.29297 0.29297h-0.011719l-0.082031 0.082031h-0.011719l-0.070313 0.082032h-0.011718l-0.21094 0.21094h-0.011719l-0.046875 0.058594h-0.011718l-0.046876 0.046875v0.011718l-0.046874 0.035157v0.011719l-0.035157 0.023437-0.12891 0.12891-0.023437 0.011719-0.046876 0.046875h-0.011718v0.011719h-0.011719v0.011718h-0.023437l-0.023438 0.023438h-0.011719l-0.023437 0.023438h-0.023438l-0.011718 0.011718h-0.011719l-0.011719 0.011719h-0.011719l-0.011719 0.011719h-0.035156l-0.011718 0.011718h-0.035157l-0.011719 0.011719h-0.023437l-0.011719 0.011719h-0.11719v0.011719h-0.035157l-0.011718-0.011719h-0.10547l-0.011719-0.011719h-0.035156v-0.011719h-0.011719l-0.058593-0.011718-0.011719-0.011719h-0.015625l-0.035156-0.011719-0.011719-0.011718h-0.023438l-0.011719-0.011719-0.023437-0.011719-0.011719-0.011719h-0.011718l-0.023438-0.023437h-0.011719l-0.035156-0.035156h-0.011719v-0.011719l-0.035156-0.023438-0.035156-0.035156-0.011719-0.023437-0.011719-0.011719h-0.011718l-0.14063-0.15234-0.046874-0.058594-0.046876-0.046875-0.058593-0.070312-0.058594-0.058594v-0.011719l-0.070313-0.058593v-0.011719l-0.14062-0.15625-0.023438-0.011719-0.15234-0.16406-0.011718-0.035157-0.070313-0.070312-0.035156-0.023438-0.16406-0.1875-0.046875-0.046875-0.058593-0.070312-0.16406-0.16406-0.058594-0.070312-0.058593-0.058594-0.058594-0.070313-0.12891-0.12891-0.070313-0.082031-0.058594-0.058594-0.22266-0.23438-0.046875-0.046875-0.09375-0.10547-0.046875-0.046874-0.09375-0.10547-0.046875-0.046875-0.10547-0.11719-0.16406-0.16406-0.035157-0.046875-0.11719-0.12891-0.19922-0.19922-0.14062-0.15234-0.023437-0.023438-0.15234-0.16406-0.011719-0.011719-0.16406-0.17578h-0.011719l-0.16406-0.1875-0.1875-0.1875-0.17578-0.1875-0.011718-0.011719-0.17578-0.1875-0.011718-0.011719-0.17578-0.1875-0.023437-0.023437-0.16406-0.17578-0.035156-0.023438-0.16406-0.17578-0.19922-0.19922-0.046875-0.058594-0.14062-0.15234-0.21094-0.21094-0.058593-0.070312-0.22266-0.22266-0.12891-0.14062-0.30469-0.30469-0.11719-0.12891-0.22266-0.22266-0.10547-0.11719-0.11719-0.10547-0.11719-0.12891-0.09375-0.10547-0.45703-0.45703-0.14062-0.15234-0.082032-0.082031-0.15234-0.16406-0.082031-0.070313-0.16406-0.17578-0.070313-0.058594-0.16406-0.17578-0.058594-0.070313-0.1875-0.1875-0.058594-0.046875-0.1875-0.19922-0.046874-0.046874-0.21094-0.19922-0.023438-0.035157-0.24609-0.24609-0.22266-0.23438-0.023437-0.011719-0.49219-0.49219c-4.3008-4.418-9.1914-9.2969-12.801-12.566-2.5508-2.3164-4.3125-3.8555-4.418-3.7852-0.47266 0.26953-2.2695 2.0352-4.7148 4.5-2.4453 2.4688-5.4648 5.582-8.4414 8.6641v21.52zm0-17.23v-30.02h-63.73v23.543c2.6445-2.7383 5.2539-5.418 7.3594-7.5469 2.5273-2.5508 4.418-4.3828 5.0078-4.7383 0.80859-0.48047 3.1719 1.1875 6.2305 3.9609 3.5391 3.2227 8.2383 7.8867 12.426 12.176l9.1914-5.9922c0.26953-0.16406 0.61328-0.16406 0.87109 0.035156l9.4375 7.0273c0.97656-0.85938 1.8555-1.6445 2.6094-2.3281 1.4922-1.3516 2.5625-2.3281 3.1055-2.5039 0.24609-0.070313 0.53906-0.023438 0.75 0.16406zm-22.859 7.625 8.5078-8.1328-8.7812-6.5352-8.4844 5.5234 0.15234 0.16406 0.035156 0.023437 0.17578 0.17578 0.011719 0.023438 0.17578 0.17578 0.023438 0.011719 0.17578 0.1875 0.375 0.375 0.011719 0.023438 0.17578 0.16406 0.1875 0.1875 0.023437 0.035156 0.19922 0.19922 0.12891 0.14062 0.058593 0.046875 0.11719 0.12891 0.070312 0.070313 0.10547 0.11719 0.082031 0.070313 0.10547 0.10547 0.070312 0.082032 0.10547 0.09375 0.16406 0.1875 0.51562 0.51562 0.11719 0.12891 0.046875 0.046875 0.12891 0.14062 0.035156 0.035156 0.12891 0.14062 0.035156 0.023438 0.14062 0.15234 0.023438 0.011718 0.14062 0.16406 0.17578 0.17578 0.15234 0.16406h0.011719l0.14062 0.15234 0.023438 0.023438 0.12891 0.14062 0.023438 0.023437 0.12891 0.14062 0.30469 0.30469 0.035156 0.046875 0.10547 0.10547 0.046876 0.058594 0.15234 0.15234 0.082031 0.09375 0.21094 0.21094 0.070312 0.082031 0.12891 0.12891 0.082031 0.09375 0.1875 0.1875 0.09375 0.10547 0.023438 0.035156 0.12891 0.12891 0.10547 0.11719 0.023438 0.011718 0.10547 0.11719 0.011719 0.011719 0.23437 0.25781 0.23438 0.23438v0.011719l0.10547 0.10547 0.011719 0.023437 0.19922 0.19922 0.023437 0.035156 0.082031 0.070313 0.023438 0.035156 0.070312 0.070313 0.035157 0.046874 0.058593 0.058594 0.035157 0.046875 0.19922 0.19922 0.035156 0.046875 0.046875 0.058594 0.17578 0.17578 0.023438 0.035156 0.082031 0.082032 0.046875 0.058593 0.023437 0.011719 0.058594 0.070312 0.011719 0.011719 0.058594 0.070313 0.097656 0.10156z"/>
  <path d="m74.328 4.125c0.96484-0.31641 1.4102 1.082 0.56641 1.4102-0.44531 0.19922-0.89453 0.41016-1.3164 0.64453-0.78906 0.46875-1.6562-0.77734-0.73047-1.3398 0.47266-0.25781 0.98828-0.51562 1.4805-0.71484z"/>
  <path d="m74.246 93.793c0.41016 0 0.76172 0.33984 0.76172 0.76562 0 0.42188-0.35156 0.76172-0.76172 0.76172h-3.9727c-0.41016 0-0.75391-0.33984-0.75391-0.76172s0.33984-0.76562 0.75391-0.76562z"/>
  <path d="m71.84 35.238c1.2461 1.2461 2.0195 2.9609 2.0195 4.8672 0 1.9023-0.78906 3.6914-2.0469 4.9844-1.2461 1.293-2.9492 2.1055-4.8438 2.1055-1.8789 0-3.5859-0.80859-4.8281-2.0781l-0.011719-0.011719c-1.2695-1.3047-2.043-3.0898-2.043-4.9961 0-1.8828 0.75-3.5859 1.9727-4.832l0.046875-0.046875c1.2461-1.2461 2.9609-2.0078 4.8672-2.0078 1.8906-0.007812 3.6172 0.76953 4.8672 2.0156zm0.49219 4.8672c0-1.4805-0.60156-2.8203-1.5742-3.7969-0.96484-0.96484-2.3047-1.5742-3.7852-1.5742-1.4805 0-2.8203 0.60938-3.7969 1.5742l-0.035156 0.035156c-0.94141 0.96484-1.5273 2.293-1.5273 3.7617 0 1.4922 0.60938 2.9023 1.5977 3.9258l0.023437 0.023438c0.95312 0.98828 2.2812 1.6211 3.7383 1.6211 1.457 0 2.7852-0.63672 3.75-1.6328 0.98438-1.0352 1.6094-2.4453 1.6094-3.9375z"/>
  <path d="m71.59 95.84c0.42188 0 0.76172 0.33984 0.76172 0.76172 0 0.41016-0.33984 0.75391-0.76172 0.75391h-8.4766c-0.42188 0-0.76172-0.33984-0.76172-0.75391 0-0.42187 0.33984-0.76172 0.76172-0.76172z"/>
  <path d="m68.992 7.6406c0.68359-0.68359 1.7969 0.35156 1.0586 1.1055-0.35156 0.31641-0.70312 0.68359-1.0234 1.0352-0.74219 0.75391-1.8086-0.33984-1.1406-1 0.36719-0.40234 0.71875-0.77734 1.1055-1.1406z"/>
  <path d="m65.219 12.707c0.30469-0.77734 1.8008-0.39844 1.3516 0.69531-0.21094 0.43359-0.41016 0.87109-0.59766 1.3281-0.36328 0.92578-1.7891 0.36328-1.4102-0.57812 0.19922-0.49609 0.41016-0.96484 0.65625-1.4453z"/>
  <path d="m23.152 15.16c0.10547 0.41016-0.14062 0.82422-0.53906 0.92969l-1.3633 0.36328c-0.40234 0.11719-0.82422-0.12891-0.92969-0.53906-0.10547-0.39844 0.12891-0.82422 0.53906-0.92969l1.3516-0.36328c0.41406-0.10547 0.82422 0.12891 0.94141 0.53906z"/>
  <path d="m21.648 90.645c0.36328 0.36328 0.58594 0.86719 0.58594 1.4219 0 0.5625-0.22266 1.0703-0.58594 1.4336-0.36328 0.36328-0.87109 0.58594-1.4336 0.58594-0.55078 0-1.0586-0.22266-1.4219-0.58594s-0.59766-0.87109-0.59766-1.4336c0-0.55469 0.23438-1.0586 0.59766-1.4219s0.87109-0.58594 1.4219-0.58594c0.56641-0.003906 1.0703 0.21875 1.4336 0.58594zm-0.9375 1.4219c0-0.12891-0.046876-0.25781-0.14063-0.33984-0.082031-0.09375-0.21094-0.15234-0.35156-0.15234-0.12891 0-0.25781 0.058593-0.33984 0.15234-0.09375 0.082032-0.15234 0.21094-0.15234 0.33984 0 0.14062 0.058594 0.26953 0.15234 0.35156 0.082032 0.09375 0.21094 0.15234 0.33984 0.15234 0.14062 0 0.26953-0.058593 0.35156-0.15234 0.09375-0.082031 0.14063-0.21094 0.14063-0.35156z"/>
  <path d="m21.25 18.441c0.11719 0.41016-0.12891 0.82422-0.53906 0.94141-0.40234 0.10547-0.8125-0.14062-0.92969-0.53906l-0.35156-1.3281c-0.10547-0.41016 0.12891-0.82031 0.53906-0.92969 0.40234-0.11719 0.82422 0.12891 0.92969 0.52734z"/>
  <path d="m20.203 14.539c0.10547 0.41016-0.12891 0.82031-0.52734 0.92969-0.41016 0.11719-0.83594-0.12891-0.94141-0.53906l-0.33984-1.2695c-0.10547-0.39844 0.14062-0.82422 0.53906-0.92969 0.41016-0.10547 0.82422 0.12891 0.92969 0.53906z"/>
  <path d="m19.359 16.184c0.10547 0.39844-0.12891 0.8125-0.53906 0.92969l-1.3867 0.36328c-0.40234 0.11719-0.82422-0.12891-0.92969-0.53906-0.10547-0.40234 0.12891-0.8125 0.53906-0.92969l1.3867-0.36328c0.39844-0.11719 0.82422 0.12891 0.92969 0.53906z"/>
  <path d="m4.3594 55.453 0.41406 1.375-1.4453 0.43359-0.41406-1.3633-1.457 0.4375-0.41016-1.375 1.457-0.4375 0.41016 1.3633z"/>
  <path d="m3.3281 57.262 0.39844 1.3633-1.4453 0.4375-0.41406-1.3633z"/>
  <path d="m1.4453 56.324 0.41016 1.375-1.4453 0.43359-0.41016-1.375z"/>
 </g>
</svg>
